<svg width="20" height="20" viewBox="0 0 20 20" fill="none" xmlns="http://www.w3.org/2000/svg">
<path d="M0 20L1.72 14.8403C0.847241 13.3724 0.344828 11.6593 0.344828 9.82759C0.344828 4.4 4.74483 0 10.1724 0C15.6 0 20 4.4 20 9.82759C20 15.2552 15.6 19.6552 10.1724 19.6552C8.52103 19.6552 6.96586 19.2459 5.6 18.5266L0 20Z" fill="#2CB742"/>
<path d="M16.4431 13.0986C15.9893 12.241 14.3159 11.2604 14.3159 11.2604C13.9372 11.0445 13.4803 11.0204 13.2645 11.4052C13.2645 11.4052 12.7207 12.0573 12.5824 12.151C11.9507 12.579 11.3655 12.5624 10.7748 11.9717L9.40207 10.599L8.02931 9.22622C7.43862 8.63553 7.42207 8.05036 7.85 7.41863C7.94379 7.28036 8.59586 6.73656 8.59586 6.73656C8.98069 6.52036 8.95655 6.06381 8.74069 5.68518C8.74069 5.68518 7.76 4.01174 6.90241 3.55794C6.53759 3.36484 6.08966 3.43243 5.79793 3.72415L5.19172 4.33036C3.26862 6.25346 4.21552 8.4245 6.13862 10.3476L7.89621 12.1052L9.65379 13.8628C11.5769 15.7859 13.7479 16.7328 15.671 14.8097L16.2772 14.2035C16.569 13.911 16.6362 13.4631 16.4431 13.0986Z" fill="white"/>
</svg>
