<svg width="20" height="15" viewBox="0 0 20 15" fill="none" xmlns="http://www.w3.org/2000/svg">
<path fill-rule="evenodd" clip-rule="evenodd" d="M17.8252 0.436952C18.6819 0.672318 19.3574 1.36129 19.5879 2.23535C20.0164 3.83186 19.9999 7.15967 19.9999 7.15967C19.9999 7.15967 19.9999 10.4705 19.5881 12.0672C19.3574 12.9411 18.682 13.6302 17.8252 13.8654C16.2602 14.2857 9.99996 14.2857 9.99996 14.2857C9.99996 14.2857 3.75609 14.2857 2.17467 13.8488C1.3179 13.6134 0.642545 12.9243 0.411833 12.0504C0 10.4705 0 7.14286 0 7.14286C0 7.14286 0 3.83186 0.411833 2.23535C0.642392 1.36145 1.33438 0.655507 2.17452 0.420296C3.73961 0 9.99981 0 9.99981 0C9.99981 0 16.2602 0 17.8252 0.436952ZM13.4692 7.14326L8.16309 10.2045V4.08203L13.4692 7.14326Z" fill="#FF0000"/>
</svg>
